<?xml version="1.0" encoding="UTF-8" standalone="no"?>
<svg width="801px" height="1140px" viewBox="0 0 801 1140" version="1.1" xmlns="http://www.w3.org/2000/svg" xmlns:xlink="http://www.w3.org/1999/xlink" xmlns:sketch="http://www.bohemiancoding.com/sketch/ns">
    <!-- Generator: Sketch 3.3.1 (12005) - http://www.bohemiancoding.com/sketch -->
    <title>pages-defs</title>
    <desc>Created with Sketch.</desc>
    <defs></defs>
    <g id="Page-1" stroke="none" stroke-width="1" fill="none" fill-rule="evenodd" sketch:type="MSPage">
        <g sketch:type="MSLayerGroup" id="pages-defs" fill="#000000">
            <g sketch:type="MSShapeGroup">
                <g id="page_01" transform="translate(0.000000, 1.000000)">
                    <path d="M800,1129 C800,1130 798,1132 797,1132 L3,1132 C2,1132 0.2,1130.2 0.2,1129.2 L0.2,3.2 C0.2,2.2 2.2,0.2 3.2,0.2 L797.2,0.2 C798.2,0.2 800.2,2.2 800.2,3.2 M73.5,1052.2 C73.5,1054.8 77,1059.2 79,1059.2 C173,1059.6 267,1059.6 361,1059.5 C362.8,1059.5 366,1057.5 366.3,1055.8 C384,976.8 452.1,672.8 452.1,672.8 C461.1,632.8 461.1,632 432.1,633.8 C326.1,639.4 221.1,645.5 115.1,651.1 C114.1,652.1 110.1,647.1 111.1,645.1 C121.1,612.1 132.1,579.1 141.1,544.1 C143.1,540.1 137.1,529.1 133.1,528.1 C117.1,523.1 100.1,519.1 84.1,516.1 C82.1,516.1 77.1,520.1 77.1,522.1 M731.1,397 C731.1,394.6 730.1,392.3 730.1,390 C729.1,391.8 700.499994,417 700.499994,417 C700.499994,417 685.1,412.799999 685.1,413 C685.1,412.8 681.1,415.5 681.1,417 C666.1,484 651.1,551 635.1,617 C635.1,619 632.1,622 630.1,622.3 C584.1,625.3 537.1,628.3 490.1,630.7 C482.1,631.2 474.1,631.3 473.1,643 C472.1,653.3 394.1,1009.7 385.1,1052.7 C385.1,1054.7 389.1,1059.9 391.1,1059.9 L726.1,1059.9 C729.1,1059.9 734.1,1054.9 734.1,1051.9 M131.1,642 L618.1,612 C622.1,612 627.1,608 628.1,604 L688.1,330 C688.1,328 683.8,323 682.1,323 C682.1,323 251.1,425 205.1,435 C193.6,438 186.1,442 184.1,454 C181.1,469 143.7,590 129.7,635 M76,495 C76,498 78,503 79.8,503.6 C101.6,509.6 123.5,515.6 145.8,520.8 C147.4,521.4 150.8,519.8 151.2,518.4 C157.2,499.4 152.799998,509.900006 159.499998,491.500006 C162.499998,481.500006 175.9,435.4 182.9,433.4 C220.9,421.9 538,348.5 538,348.5 C539.2,348.1 540.5,347 542,346.2 C540.5,345.2 539.4,343.8 538,343.2 C460,305.5 381,268.2 303,230.2 C301.3,229.2 299.6,225.6 300.2,223.9 L347.2,81.9 C347.8,79.9 343.8,73.9 341.9,73.9 C255.9,72.9 169.9,72.9 82.9,73.9 C79.9,73.9 75.9,77.9 75.9,80.9 M727.9,79.9 C727.9,76.9 723.9,72.9 721.9,72.9 C602.9,71.9 482.9,71.9 363.9,71.9 C361.9,71.9 358.9,72.9 357.9,73.9 C352.9,83.9 320.9,177.9 309.9,214.9 C308.9,216.9 310.9,220.9 312.9,221.9 C381.9,255.9 451.9,289.9 520.9,322.9 C534.9,329.9 550.9,340.9 563.9,337.9 C605.9,330.9 647.9,318.9 689.9,308.9 C691.9,307.9 698.900005,311.000006 698.900005,312.000006 L681.9,397.9 L698.9,403.9 L727.900005,374.500006" id="page01"></path>
                </g>
                <g id="page_02" transform="translate(0.000000, 1.000000)">
                    <path d="M0,3 C0,2 2,0 3,0 L797,0 C798,0 800,2 800,3 C800.2,381 800.2,758 800,1136 C800,1137 798.2,1139 797,1139 L3,1139 C2,1139 0,1137 0,1136 M720,1065.8 C722.4,1065.8 727,1062.2 727,1060.3 C727.3,877.3 727.3,695.3 727,512.3 C727,510.8 723,507.7 721.5,508 C708.9,510.5 108.8,649.8 80.8,656.2 C78.1,656.7 74.4,661.6 74.4,664.5 C74.1,795.5 74.1,926.5 74.4,1057.5 C74.4,1060 79.2,1064.8 81.7,1064.8 M81.7,73.1 C78.9,73.1 73.7,78.1 73.7,81.1 C73.3,261.1 73.4,442.1 73.2,622.1 C73.2,632.1 76.6,633.1 84.7,630.1 C89.9,628.1 648.1,501.1 721.1,483.1 C724.1,483.1 728.1,478.1 728.1,475.1 C729.1,344.1 729.1,213.1 728.1,83.1 C728.1,80.1 723.1,76.1 721.1,76.1" id="page02"></path>
                </g>
                <g id="page_03" transform="translate(0.000000, 1.000000)">
                    <path d="M0,3 C0,2 2,0 3,0 L797,0 C798,0 800,2 800,3 C800.2,381 800.2,758 800,1136 C800,1137 798.2,1139 797,1139 L3,1139 C2,1139 0,1137 0,1136 M726.6,327 C726.6,324.4 720,319 717.2,319.6 C681.6,325.9 371.2,387.8 316.2,399.7 C313.5,400.3 309.6,406.1 310,408.7 C313.6,429 318.3,448.7 322.2,468.7 C322.6,470.5 320.2,474.4 318.4,474.7 C299.8,478.7 141.4,508.7 80.4,520.7 C77.6,521.3 73.4,525.2 73.4,527.7 C73,623.7 73.1,719.7 73.4,816.7 C73.4,818.1 76.9,821.1 78.4,820.9 L469.4,743.9 C471.4,742.9 474.8,738.9 474.4,736.9 C470.4,714.9 465.8,693.9 462,671.9 C461.6,669.9 464.6,664.9 466.7,664.9 C481.1,660.9 648.7,628.9 718.7,614.9 C721.7,613.9 725.7,608.9 725.7,605.9 M719.1,1062.9 C722.1,1062.9 726.1,1058.9 726.1,1056.9 C727.1,919.9 727.1,782.9 726.1,644.9 C726.1,642.9 722.1,638.9 720.1,638.9 L494.1,680.9 C492.1,680.9 489.1,684.9 490.1,686.9 C492.1,697.9 495.1,709.9 497.1,720.9 C505.1,763.9 504.499994,756.499998 476.499994,762.499998 C392.499994,779.499998 133.1,829.9 83.1,839.9 C80.1,839.9 75.1,845.9 75.1,849.9 L75.1,1052.9 C75.1,1054.9 80.1,1059.9 83.1,1059.9 M83,66.9 C80,66.9 75,71.9 75,73.9 C74.5,210.9 74.5,346.9 75,483.9 C75,485.9 80.5,489.9 82.7,489.9 C118.7,482.9 257.7,455.9 290.7,449.9 C292.7,448.9 295.7,446.9 295.7,444.9 C293.4,430.9 291.7,416.9 286.7,403.9 C279.4,384.9 284.4,370.9 301.5,367.9 C373.5,354.9 652.5,300.9 720.5,286.9 C723.5,286.9 727.5,281.9 727.5,278.9 C728,210.9 728,141.9 727.5,73.9 C727.5,70.9 722.5,66.9 720.1,66.9" id="page03"></path>
                </g>
                <g id="page_04">
                    <path d="M800,1136 C800,1137 798,1139 797,1139 L3,1139 C2,1139 0.2,1137 0.2,1136.2 L0.2,3.2 C0.2,2.2 2.2,0.2 3.2,0.2 L797.2,0.2 C798.2,0.2 800.2,2.2 800.2,3.2 M725,82.2 C725,79.9 721,75.2 719,75.2 C633,75 547,74.9 462,75.2 C459,75.2 453.6,79.9 453,83.2 C446.4,114.2 359.6,559.9 353.3,593.2 C353,594.9 355.3,598.8 356.8,599.2 C367,601.5 717.6,662 717.6,662 C719.9,662.4 725.4,657.8 725.4,655.5 M720.7,1065.3 C722.9,1065.3 727.1,1062 727.1,1060.3 C728.1,938.3 728.1,815.3 728.1,693.3 C728.1,691.3 726.1,688 724.1,687.7 C624.1,670 393.1,629.2 377.1,627 C364.1,625.3 348.1,618.6 344.1,641 C339.1,672.8 270.1,1030.7 264.1,1053 C262.1,1064 264.1,1066 275.1,1065.8 M76.1,1058.6 C76.1,1061 81.1,1065.6 83.1,1065.6 C133.1,1066 184.1,1066 234.1,1065.6 C237.1,1065.6 241.1,1062.6 241.1,1060.3 C249.1,1019.6 367.1,415.3 376.1,364.3 C377.1,360.5 371.1,352.3 367.1,351.3 C273.1,334 179.1,317.3 85.1,301.3 C83.1,301 77.1,305.5 77.1,307.8 M84.1,75 C82.1,75 78.1,78.5 78.1,80.3 L78.1,270.3 C78.1,272.6 82.1,276.5 84.1,276.9 C111.1,281.9 307.1,316.9 379.1,328.9 C381.1,328.9 385.1,326.9 385.1,324.9 L432.1,81.9 C433.1,79.9 429.1,74.9 427.1,74.9"></path>
                </g>
                <g id="page_05" transform="translate(0.000000, 1.000000)">
                    <path d="M0,3 C0,2 2,0 3,0 L797,0 C798,0 800,2 800,3 C800.2,381 800.2,758 800,1136 C800,1137 798.2,1139 797,1139 L3,1139 C2,1139 0,1137 0,1136 M727,355 C727.2,342.7 730,333.6 710,339.4 C671.6,350.4 157,467 80,485 C77.5,485.6 74,490 74,492.7 C73.7,593.7 73.7,695.7 74,796.7 C74,798.7 78.8,802.4 80.6,802 C122.6,792.8 660.6,670.1 708.6,660.1 C722.6,657.1 728.4,653.1 727.9,637.1 M719.9,1067.1 C721.9,1067.1 726.9,1064.1 726.9,1062.1 L726.9,684 C726.9,682.4 722.9,679.2 721.9,679.5 C641.9,697.5 110.9,821.1 80.9,828.1 C77.9,829.1 72.9,834.1 72.9,838.1 C71.9,912.1 71.9,986.1 72.9,1061.1 C72.9,1064.1 77.9,1069.1 79.9,1069.1 M82.9,80.1 C78.9,80.1 72.9,86.1 72.9,90.1 C71.9,213.1 71.9,335.1 72.9,458.1 C72.9,460.1 76.9,463.1 78.9,463.1 C98.9,459.1 624.9,339.1 711.9,318.1 C716.9,317.1 723.9,308.1 723.9,303.1 C724.9,231.1 724.9,159.1 723.9,87.1 C723.9,85.1 718.9,80.1 715.9,80.1"></path>
                </g>
                <g id="page_06">
                    <path d="M800,1136 C800,1136 798,1139 797,1139 L3,1139 C2,1139 0.2,1137 0.2,1136.2 L0.2,3.2 C0.2,2.2 2.2,0.2 3.2,0.2 L797.2,0.2 C798.2,0.2 800.2,2.2 800.2,3.2 M422.2,709.4 C420.2,709.8 416.6,714.4 416.9,716.4 L470.9,1060.4 C470.9,1062.4 474.9,1065.4 476.9,1065.4 C557.9,1065.8 638.9,1065.8 720.9,1065.4 C722.9,1065.4 725.9,1062.2 725.9,1060.4 L725.9,660.4 C725.9,659 721.9,656.1 720.9,656.4 M73,741 C73,743 77,747.2 79,747 C94,745 719,633.4 719,633.4 C721.6,633.1 725.5,628.4 725.5,626.2 C725.8,593.9 726.1,561.2 725.2,529.2 C725.2,524.8 718.7,517.2 714.2,516.6 C653.2,505.1 117.2,411.1 79.2,405.1 C77.4,405.1 72.8,409.1 72.8,411.1 M442.8,1068.1 C444.8,1068.1 448.8,1064.1 448.1,1062.1 C446.1,1045.1 410.1,818.1 395.1,723.1 C395.1,722.1 391.1,719.1 389.1,719.1 C364.1,723.1 158.1,759.1 81.1,774.1 C79.1,775.1 75.1,779.1 75.1,782.1 L75.1,1063.1 C75.1,1066.1 79.1,1070.1 82.1,1070.1 M727.1,86 C727.1,83.4 724.1,79.2 721.1,79.2 C674.1,78.6 626.1,78.6 578.1,79.2 C576.1,79.2 571.1,83.2 571.1,85.7 C565.1,124.7 513.1,451.7 513.1,451.7 C513.1,453.7 516.1,457.7 518.1,457.7 L722.1,493.7 C724.1,493.7 729.1,489.7 729.1,487.7 M353,76 C350,76 345,80 344.5,83 C337.3,127 303.5,340 293.9,402 C292.9,406.6 295.9,415.6 298.9,416 C333.9,424 481.9,451.1 481.9,451.1 C483.9,452.1 489.9,449.1 489.9,448.1 C504.9,359.1 543.9,116.1 547.9,83.1 C547.9,82.1 543.9,78.1 542.9,77.1 M76.2,374 C76.2,376.5 80.2,381 82.9,381.4 C97.9,384.4 215.9,404.4 260.9,411.4 C262.9,411.6 266.9,408.4 267.9,406.1 L318.9,82.1 C318.9,80.1 314.9,76.1 312.9,76.1 L82,76.1 C80,76.1 76,80.1 76,83.1"></path>
                </g>
                <g id="page_07">
                    <path d="M800,1136 C800,1137 798,1139 797,1139 L3,1139 C2,1139 0.2,1137 0.2,1136.2 L0.2,3.2 C0.2,2.2 2.2,0.2 3.2,0.2 L797.2,0.2 C798.2,0.2 800.2,2.2 800.2,3.2 M727,203.2 C727,201.6 722.8,198.2 721.3,198.5 C689.6,205.5 108.5,340.4 80.3,347.4 C77.3,348.2 73.1,353.4 73.1,356.7 L73.1,622.7 C73.1,633.9 77.1,633.2 85.1,630.3 C91.1,628.3 635.1,503.1 721.1,483.1 C724.1,483.1 727.1,478.1 728.1,475.1 M729.1,514 C729.1,512 724.1,509 722.1,509 C694.1,515 528.754041,551.315531 513.499994,556 C498.245947,560.684469 485.1,556.5 483.1,575.6 C483.1,581 371.1,1014.6 360.1,1059.6 C360.1,1061.6 364.1,1066.9 366.1,1067 L722.1,1067 C725.1,1067 730.1,1062 730.1,1059 M74.3,1058 C74.3,1060.3 77.7,1064.6 79.7,1064.6 L326.7,1064.6 C328.7,1064.6 332.7,1061.6 333.1,1059.6 C357.1,965.6 456.1,572.6 456.1,572.6 C457.1,571.6 453.1,568 452.1,568.2 C441.1,570.2 141.1,639.1 81.1,653.2 C78.1,653.6 75.1,658.4 75.1,661.2 M81,71.5 C78.4,71.5 73.4,76.5 73.4,79.1 C72.9,157.1 72.9,235.1 73.4,313.1 C73.4,315.1 78.8,320.1 81,319.1 C115,312.1 644.999976,190.5 704,176.1 C714.835094,173.455504 726.699988,176.099998 726.699988,155.5 C727.399976,127.9 727.3,108.1 726.7,80.1 C726.7,78.1 721.7,73.1 719.2,73.1"></path>
                </g>
                <g id="page_08" transform="translate(0.000000, 1.000000)">
                    <path d="M0,3 C0,2 2,0 3,0 L797,0 C798,0 800,2 800,3 C800.2,381 800.2,758 800,1136 C800,1137 798.2,1139 797,1139 L3,1139 C2,1139 0,1137 0,1136 M73.2,1060 C73.2,1062.3 76.8,1066.7 78.7,1066.7 C194.7,1067 311.7,1067 427.7,1066.7 C429.9,1066.7 433.5,1063.9 434.1,1061.7 C449.1,1003.9 554.1,591.7 563.1,551.7 C564.1,550.2 559.1,545.7 558.1,545.9 C467.1,565.9 148.1,639.9 80.1,655.9 C77.1,655.9 73.1,661.9 73.1,664.9 M80,74.3 C77.4,74.3 72.6,77.3 72.6,78.9 C72.3,179.9 72.3,280.9 72.6,380.9 C72.6,381.9 76.3,384.9 77.6,384.9 C77.6,384.9 618.6,261.9 716.6,238.9 C720.4,237.9 725.4,231.9 725.4,227.9 C726,178.9 725.9,130.9 725.4,81.9 C725.4,78.9 720,73.9 717,73.9 M725.7,513.9 C725.7,511.9 720.7,506.9 718.7,507.9 C682.7,514.9 646.7,523.9 610.7,530.9 C597.5,532.9 590.9,536.9 587.7,552.9 C576.9,603.9 470.1,1019.9 460.2,1057.9 C459.8,1058.9 463.5,1063.9 465.2,1063.9 L719.2,1063.9 C721.7,1063.9 726.2,1058.9 726.2,1056.9 M72.8,624.9 C72.8,625.9 76.8,629.9 78.5,629.9 C92.7,626.9 262.5,586.9 332.5,569.9 C350.5,564.9 371.5,568.9 377.5,538.9 C391.9,469.9 411.3,400.9 428.5,331.9 C428.8,329.9 426,326.9 425.2,326.9 C407.9,329.9 76.6,406.9 76.6,406.9 C74.3,406.9 71.6,411.9 71.6,413.9 M725.1,263.9 C725.1,261.9 722.1,257.9 721.1,258.9 C693.1,264.9 495.1,309.9 470.1,315.9 C464.1,316.9 457.1,324.9 455.1,330.9 C448.1,356.9 413.1,500.9 401.1,545.9 C401.1,546.9 405.1,550.9 406.1,550.9 C478.1,534.9 681.1,487.9 711.1,481.9 C724.1,478.9 729.1,473.9 729.1,459.9"></path>
                </g>
                <g id="page_09">
                    <path d="M800,1136 C800,1137 798,1139 797,1139 L3,1139 C2,1139 0.2,1137 0.2,1136.2 L0.2,3.2 C0.2,2.2 2.2,0.2 3.2,0.2 L797.2,0.2 C798.2,0.2 800.2,2.2 800.2,3.2 M460.2,1065 C463,1065 467.4,1061.7 468.2,1059 C472.2,1045.2 538.2,782 568.2,664 C568.7,661.8 568.7,659.3 568.9,656.8 C565.9,657.4 562.9,657.5 560.9,658.6 C533.9,671.1 119.9,853.6 93.9,863.4 C77.9,869.4 72.9,877.4 72.9,894.4 C73.9,948.4 72.9,1002.4 73.9,1056.4 C73.9,1059.2 78.9,1064.4 81.9,1064.4 M72.9,500.8 C72.9,502.8 76.9,506.8 78.9,506.3 C127.9,495.3 178.829833,484.975185 226.9,472.3 C247.000006,467.000012 253.9,467.1 254.9,448.8 C254.9,441.8 346.9,79.8 346.9,79.8 C346.9,77.8 342.9,72.6 341.9,72.6 C254.9,72.2 166.9,72.2 79.9,72.6 C76.9,72.6 72.9,77.1 72.9,79.6 M72.9,838.6 C72.9,840 77.9,843.4 78.9,842.8 C161.9,806.3 245.9,769.8 328.9,732.8 C330.9,731.8 333.9,729 333.9,726.5 C355.9,638.5 378.9,550.5 400.9,462.5 C400.9,461.5 396.9,458.3 395.9,458.5 C289.9,483.1 183.9,507.5 77.9,532.5 C74.9,533.2 70.9,538.2 70.9,541.2 M722.9,591.2 C722.9,589.5 718.9,586 718.9,586.2 C677.9,604.2 637.9,622.9 596.9,641.2 C594.9,641.9 593.9,643.6 593.9,645 C585.9,671.6 514.9,950 506.9,979 C499.9,1005 493.9,1031 486.9,1058 C485.9,1060 489.9,1064.8 491.9,1064.8 C565.9,1065.1 639.9,1065.2 713.9,1064.8 C715.9,1064.8 720.9,1060.1 720.9,1057.6 M375.499999,74.1 C373.680508,75.4124182 366.999999,78.8 366.999999,79.1 C360.999999,100.1 281.9,414.1 273.2,444.1 C269.2,458.1 272.2,460.1 285.2,456.1 C302.8,451.1 421.2,425.1 462.2,415.1 C471.6,413.1 487.2,417.1 488.2,398.1 C488.9,387.1 569.6,79.1 569.6,79.1 C569.6,78.1 566.1,74.1 564.6,74.1 M719,391.1 C719,389.1 715,386.1 713,386.1 C693.5,390.1 512.500006,433.500002 480.4,439.1 C439.499998,450.500002 417.4,454.1 411.4,495.1 C407.4,525.1 361.4,697.1 356.4,715.1 C356.4,717.1 356.4,719.1 357.4,719.1 C358.4,720.1 360.4,720.1 361.4,719.1 C424.4,692.1 644.4,594.1 692.4,574.1 C711.4,567.1 724.4,559.1 720.4,535.1 M719.6,79 C719.6,76.6 715.8,72.5 714,72.4 C676,71.9 638,71.9 600,72.4 C598,72.4 594.4,75.4 594,77.4 C587,102.4 523,357.4 513,399.4 C512.5,400.4 516.4,404.4 518,404.1 C540,400.1 713,359.1 713,359.1 C716,358.1 719,353.1 719,350.1"></path>
                </g>
            </g>
        </g>
    </g>
</svg>